<?xml version="1.0" standalone="no"?>
<!DOCTYPE svg PUBLIC "-//W3C//DTD SVG 20010904//EN"
 "http://www.w3.org/TR/2001/REC-SVG-20010904/DTD/svg10.dtd">
<svg version="1.0" xmlns="http://www.w3.org/2000/svg"
 width="1024.000000pt" height="1104.000000pt" viewBox="0 0 1024.000000 1104.000000"
 preserveAspectRatio="xMidYMid meet">
<metadata>
Created by potrace 1.16, written by Peter Selinger 2001-2019
</metadata>
<g transform="translate(0.000000,1104.000000) scale(0.100000,-0.100000)"
fill="#000000" stroke="none">
<path d="M7575 10989 c-38 -11 -101 -24 -139 -29 -38 -6 -83 -19 -100 -29 -17
-11 -48 -22 -68 -26 -20 -4 -51 -18 -69 -31 -18 -13 -40 -24 -50 -24 -9 0 -33
-13 -54 -30 -21 -16 -44 -30 -52 -30 -17 0 -143 -102 -243 -197 -67 -64 -81
-73 -114 -73 -20 0 -58 11 -84 24 -26 13 -67 26 -90 30 -24 4 -62 16 -85 27
-22 12 -71 25 -109 30 -37 5 -82 16 -99 24 -16 9 -80 22 -142 30 -62 8 -139
21 -172 30 -179 48 -1083 41 -1163 -9 -7 -4 -65 -13 -131 -21 -65 -8 -136 -21
-156 -29 -21 -9 -67 -21 -102 -26 -36 -6 -82 -19 -102 -29 -20 -10 -62 -24
-94 -31 -33 -6 -73 -20 -90 -30 -18 -10 -50 -21 -72 -25 -22 -4 -58 -18 -81
-31 -22 -13 -49 -24 -59 -24 -10 0 -37 -11 -59 -24 -23 -13 -53 -26 -68 -30
-15 -3 -44 -17 -64 -31 -20 -14 -45 -25 -54 -25 -10 0 -28 -8 -41 -19 -13 -10
-44 -28 -69 -40 -50 -24 -123 -66 -166 -95 -16 -11 -45 -29 -64 -41 -59 -37
-83 -53 -125 -84 -22 -17 -53 -38 -70 -47 -75 -42 -408 -333 -532 -465 -79
-84 -93 -91 -165 -79 -126 20 -462 24 -638 7 -91 -9 -204 -18 -251 -21 -48 -3
-115 -15 -150 -25 -35 -11 -98 -25 -139 -31 -41 -6 -85 -18 -97 -26 -12 -8
-46 -19 -75 -25 -29 -6 -73 -22 -98 -35 -25 -13 -54 -24 -66 -24 -12 0 -33 -9
-47 -20 -14 -12 -41 -26 -59 -32 -18 -6 -42 -19 -53 -29 -11 -10 -36 -25 -55
-34 -19 -9 -51 -27 -70 -41 -51 -37 -260 -253 -260 -269 0 -7 -11 -26 -24 -42
-13 -15 -27 -39 -31 -53 -4 -14 -18 -43 -30 -65 -13 -22 -26 -55 -30 -74 -4
-18 -16 -54 -28 -80 -40 -91 -42 -534 -2 -611 9 -18 23 -64 31 -103 8 -40 21
-81 28 -92 7 -11 20 -45 29 -76 9 -31 24 -62 32 -69 8 -7 15 -17 15 -23 0 -27
156 -313 205 -376 12 -14 26 -38 33 -53 6 -16 16 -28 21 -28 5 0 20 -16 33
-37 12 -20 32 -50 43 -67 20 -31 28 -41 89 -107 17 -19 58 -68 91 -109 76 -97
126 -150 320 -341 196 -194 176 -175 315 -294 63 -54 118 -103 122 -109 4 -6
8 -24 8 -39 0 -16 11 -56 24 -90 14 -34 28 -84 32 -112 3 -27 14 -63 24 -80
10 -16 23 -54 29 -84 6 -30 20 -68 30 -85 10 -17 22 -47 26 -66 4 -19 18 -55
31 -80 13 -25 24 -52 24 -61 0 -9 11 -32 24 -52 13 -19 27 -48 30 -65 4 -16
18 -44 32 -63 13 -18 24 -41 24 -50 0 -10 11 -30 24 -46 13 -15 28 -45 35 -65
7 -20 19 -42 27 -49 8 -7 21 -27 29 -45 8 -19 19 -39 25 -46 23 -28 61 -85 82
-125 12 -24 25 -43 30 -43 4 0 15 -15 24 -33 9 -17 24 -40 33 -49 9 -9 30 -35
46 -58 50 -67 93 -122 148 -185 62 -71 319 -329 403 -403 85 -75 254 -207 292
-226 18 -9 32 -20 32 -24 0 -5 16 -16 35 -25 19 -9 42 -24 52 -33 27 -24 126
-84 139 -84 6 0 19 -8 28 -19 9 -10 37 -26 61 -36 25 -9 45 -20 45 -25 0 -4
19 -15 42 -25 23 -9 53 -25 67 -34 14 -10 40 -22 57 -25 17 -4 46 -18 65 -32
18 -13 42 -24 53 -24 12 0 39 -11 61 -25 22 -13 49 -25 61 -25 12 0 46 -13 77
-30 31 -16 67 -30 79 -30 13 0 46 -11 75 -24 29 -14 74 -28 100 -31 26 -4 68
-16 93 -27 25 -10 79 -23 120 -28 41 -6 100 -18 130 -29 32 -11 110 -24 190
-31 74 -6 149 -15 165 -21 95 -30 627 -37 745 -9 25 6 120 19 211 29 91 10
175 23 186 30 12 6 65 18 118 26 54 9 111 23 127 31 16 8 64 22 105 30 42 8
82 19 90 25 7 7 41 20 76 29 67 19 143 48 222 86 28 13 61 26 75 30 14 4 36
15 50 24 14 10 44 23 67 29 23 6 45 16 48 22 4 5 30 21 58 35 29 13 65 32 80
40 25 14 46 15 160 5 73 -6 173 -17 222 -23 110 -15 535 -15 655 1 47 6 146
17 221 25 74 8 155 22 180 30 25 9 75 20 111 25 36 5 83 18 104 29 22 11 58
23 79 27 22 4 58 18 80 30 22 13 57 26 78 30 20 4 47 15 60 25 12 9 42 28 66
41 85 47 97 54 118 74 12 11 42 36 68 55 61 46 122 107 165 164 19 26 45 59
58 73 12 14 22 31 22 38 0 7 13 32 30 56 16 24 30 53 30 64 0 11 11 40 24 65
13 25 27 72 31 105 4 33 13 91 21 128 16 80 18 164 4 236 -5 29 -15 94 -21
144 -6 51 -19 112 -30 137 -10 25 -23 67 -29 95 -6 27 -19 63 -30 80 -10 16
-24 50 -30 75 -7 24 -20 55 -31 68 -10 14 -19 33 -19 43 0 9 -11 30 -24 46
-13 15 -28 44 -35 64 -6 20 -21 45 -31 54 -11 10 -20 24 -20 30 0 7 -13 29
-30 50 -16 21 -30 42 -30 48 0 5 -12 24 -27 42 -16 18 -39 52 -53 75 -28 48
-98 140 -156 205 -53 58 -66 85 -61 123 52 390 69 719 47 912 -5 47 -14 154
-20 238 -6 91 -17 170 -26 195 -9 23 -22 87 -29 142 -7 56 -19 114 -28 131 -8
16 -20 58 -27 94 -6 36 -23 90 -36 121 -13 31 -24 69 -24 85 0 16 -9 43 -20
61 -10 18 -26 57 -34 88 -8 31 -22 65 -30 74 -9 10 -19 33 -22 52 -4 19 -17
52 -29 74 -12 22 -26 51 -30 65 -4 13 -16 36 -26 50 -38 55 -35 68 39 147 13
14 35 43 50 65 15 22 39 59 54 82 15 22 37 61 49 86 11 25 26 52 33 60 7 8 18
37 25 63 6 27 20 61 30 75 11 15 22 53 25 85 4 32 13 75 21 94 26 62 40 258
27 386 -6 61 -17 128 -25 147 -8 19 -18 62 -22 95 -4 33 -18 80 -31 105 -13
25 -24 52 -25 60 0 8 -20 51 -45 95 -24 44 -51 96 -60 115 -9 19 -24 44 -35
55 -11 11 -38 45 -62 75 -50 66 -147 161 -211 210 -26 19 -60 46 -77 59 -16
13 -49 34 -72 46 -108 58 -205 105 -217 105 -7 0 -27 9 -45 20 -18 11 -66 25
-106 30 -41 5 -108 19 -149 30 -102 27 -295 26 -395 -1z m667 -549 c60 -57 70
-105 75 -375 5 -280 -2 -307 -97 -385 l-25 -20 33 -29 c55 -47 62 -90 62 -376
0 -159 -4 -265 -11 -286 -6 -19 -29 -51 -51 -71 l-39 -38 -387 0 -388 0 -38
39 c-47 48 -55 84 -55 258 -1 111 1 123 18 133 25 13 261 13 295 0 21 -8 26
-16 26 -43 0 -53 11 -57 145 -57 81 0 125 4 133 12 8 8 12 52 12 133 0 168 3
165 -152 165 -163 0 -158 -5 -158 161 0 127 0 128 28 149 25 20 36 22 140 18
145 -4 142 -8 142 157 0 81 -4 125 -12 133 -8 8 -52 12 -133 12 -130 0 -145
-5 -145 -49 0 -53 -8 -56 -165 -59 -103 -3 -150 0 -161 8 -11 10 -14 41 -14
144 1 168 8 201 59 249 l40 37 283 1 c156 0 301 4 323 8 22 5 70 9 107 10 66
1 69 0 110 -39z m-2529 -66 c34 -8 121 -20 193 -28 72 -8 148 -22 169 -30 22
-9 68 -21 104 -26 37 -5 94 -21 128 -35 35 -14 74 -25 88 -25 35 0 82 -25 96
-51 13 -25 5 -61 -21 -98 -11 -15 -23 -58 -29 -104 -6 -43 -19 -94 -30 -115
-10 -20 -21 -66 -25 -102 -4 -36 -12 -83 -18 -105 -6 -22 -16 -69 -23 -105 -7
-36 -20 -83 -29 -105 -11 -30 -15 -80 -16 -202 0 -147 2 -170 25 -239 14 -42
25 -88 25 -103 0 -14 11 -46 24 -71 13 -25 27 -61 31 -80 4 -19 18 -45 31 -57
13 -12 24 -28 24 -36 0 -13 23 -47 82 -121 27 -34 154 -161 195 -194 36 -30
132 -90 155 -98 10 -3 18 -9 18 -14 0 -5 23 -16 50 -25 28 -9 57 -23 64 -31 8
-7 47 -19 88 -25 40 -6 93 -21 118 -32 41 -19 63 -21 235 -21 175 -1 193 1
235 21 25 12 75 27 113 32 41 6 78 18 93 30 15 12 31 21 37 21 21 0 177 63
177 71 0 5 26 16 58 25 31 9 66 23 78 30 11 8 42 20 68 28 26 8 56 22 66 31
10 9 34 18 53 22 33 5 37 3 50 -30 8 -19 20 -37 25 -41 6 -3 14 -20 17 -38 4
-17 20 -58 36 -92 16 -34 29 -70 29 -81 0 -11 9 -35 20 -53 11 -18 27 -63 35
-100 7 -37 21 -80 29 -97 8 -16 20 -59 26 -95 6 -36 20 -92 30 -125 11 -33 26
-112 35 -175 8 -63 20 -137 25 -165 6 -27 13 -159 17 -292 6 -248 -4 -415 -31
-503 -7 -25 -17 -74 -21 -110 -4 -36 -15 -90 -25 -120 -9 -30 -32 -104 -50
-165 -18 -60 -41 -123 -50 -140 -10 -16 -21 -47 -24 -68 -4 -20 -15 -45 -25
-55 -10 -9 -24 -35 -31 -57 -7 -22 -21 -50 -31 -63 -10 -13 -20 -36 -24 -51
-3 -16 -17 -38 -30 -50 -14 -11 -25 -30 -25 -40 0 -11 -11 -32 -24 -48 -13
-15 -27 -39 -31 -53 -4 -14 -15 -34 -25 -45 -10 -11 -25 -33 -34 -50 -9 -16
-32 -50 -51 -75 -19 -25 -42 -58 -51 -75 -9 -16 -28 -42 -43 -57 -29 -29 -45
-46 -64 -66 -15 -16 -23 -23 -95 -90 -31 -29 -70 -60 -87 -69 -16 -9 -36 -24
-43 -34 -7 -11 -19 -19 -26 -19 -7 0 -23 -11 -36 -25 -27 -29 -52 -32 -71 -9
-7 8 -26 22 -43 31 -17 9 -44 26 -59 39 -16 13 -41 24 -55 24 -15 0 -42 10
-61 21 -98 60 -694 60 -831 0 -25 -10 -70 -22 -100 -26 -30 -4 -65 -16 -78
-26 -13 -10 -44 -21 -68 -25 -25 -3 -58 -17 -73 -30 -15 -12 -41 -26 -57 -30
-35 -9 -64 -30 -149 -107 -48 -45 -65 -68 -74 -101 -7 -28 -19 -47 -35 -55
-35 -19 -190 -11 -236 13 -19 9 -70 23 -114 31 -43 8 -86 21 -95 29 -9 8 -48
20 -86 26 -60 9 -75 15 -103 46 -23 25 -31 41 -26 52 18 42 16 84 -5 113 -11
15 -21 32 -21 37 0 5 -19 28 -42 50 -24 23 -54 53 -68 67 -14 14 -31 25 -38
25 -6 0 -19 11 -27 24 -9 13 -30 26 -47 30 -18 3 -41 15 -53 25 -11 10 -42 24
-70 30 -27 7 -57 19 -66 27 -22 20 -179 38 -268 30 -87 -7 -113 -21 -141 -76
-19 -36 -24 -40 -59 -40 -27 0 -49 8 -68 24 -15 13 -46 29 -68 36 -22 7 -44
19 -50 25 -5 7 -27 18 -47 25 -21 6 -44 20 -51 31 -8 10 -28 22 -45 25 -17 3
-41 17 -53 30 -12 13 -28 24 -35 24 -7 0 -25 11 -41 24 -15 13 -39 27 -53 31
-14 4 -36 17 -50 30 -14 12 -37 25 -52 29 -15 3 -35 15 -45 25 -10 10 -33 26
-50 35 -18 9 -33 20 -33 25 0 4 -17 15 -37 24 -39 17 -90 51 -132 86 -13 12
-30 21 -37 21 -7 0 -28 13 -46 29 -18 15 -43 31 -55 35 -13 4 -23 11 -23 16 0
5 -19 19 -42 31 -24 12 -47 28 -53 35 -15 19 -75 61 -114 79 -19 8 -41 24 -48
35 -8 11 -21 20 -28 20 -21 0 -43 39 -51 90 -3 25 -15 74 -25 109 -10 35 -19
75 -19 90 0 14 -11 42 -23 61 -13 19 -27 48 -31 64 -4 16 -18 43 -32 59 -13
16 -24 35 -24 44 0 8 -12 30 -27 49 -16 18 -41 51 -58 74 -70 96 -277 286
-331 304 -11 3 -41 25 -68 49 l-48 42 -8 150 c-9 161 2 431 19 480 6 17 17 93
25 170 8 85 19 152 29 171 9 17 21 71 27 120 6 49 18 96 26 105 8 8 19 42 25
75 6 32 19 73 29 89 10 17 24 53 31 80 7 28 20 61 30 75 9 14 20 42 24 63 3
20 14 45 24 55 11 9 24 37 31 62 7 25 18 52 25 60 7 8 20 31 28 52 8 20 25 46
36 57 12 12 21 30 21 40 0 11 10 32 23 48 12 15 28 39 35 53 7 14 23 41 37 60
13 19 35 50 47 69 13 18 33 44 46 58 12 13 22 28 22 33 0 5 18 30 40 57 22 26
50 61 62 76 13 16 35 40 51 55 15 15 27 31 27 36 0 11 2 13 110 121 85 84 176
170 222 207 18 16 47 40 63 54 71 60 118 94 131 94 8 0 14 4 14 10 0 15 180
130 260 166 19 9 62 28 95 44 33 15 71 31 85 35 14 4 32 13 40 20 8 7 33 17
55 20 22 4 65 18 95 30 30 13 82 26 115 30 33 4 83 16 110 25 28 10 93 23 145
30 52 7 122 19 155 27 33 9 116 19 185 23 169 11 517 1 593 -16z m-3683 -1424
c17 -9 17 -13 4 -57 -8 -25 -20 -54 -28 -62 -13 -15 -26 -38 -81 -146 -14 -27
-29 -57 -35 -65 -18 -29 -78 -165 -84 -194 -4 -16 -15 -40 -25 -53 -11 -12
-22 -39 -26 -60 -4 -20 -18 -58 -31 -85 -13 -26 -24 -58 -24 -70 0 -13 -11
-47 -25 -76 -13 -29 -27 -76 -31 -105 -3 -29 -15 -72 -26 -97 -10 -25 -24 -81
-29 -125 -6 -44 -19 -105 -30 -135 -11 -34 -23 -105 -29 -185 -5 -71 -16 -168
-25 -215 -8 -47 -15 -115 -15 -151 0 -139 -20 -166 -76 -100 -20 22 -53 59
-75 82 -66 69 -189 217 -189 228 0 5 -10 17 -21 25 -12 8 -30 27 -40 43 -10
15 -35 48 -54 73 -19 25 -40 56 -47 70 -7 14 -25 40 -40 58 -15 18 -28 39 -28
46 0 8 -7 19 -15 26 -8 7 -24 31 -35 54 -11 22 -26 52 -34 66 -51 97 -76 151
-76 167 0 10 -9 37 -21 58 -22 43 -48 189 -50 282 -2 98 20 218 47 254 13 18
24 38 24 44 0 13 111 126 158 162 42 32 162 93 182 93 9 0 33 11 52 24 20 13
55 27 79 31 24 4 76 17 116 31 44 15 94 24 131 24 33 0 84 5 113 11 153 31
403 48 439 29z m6959 -3495 c7 -17 22 -39 32 -50 9 -11 21 -32 24 -47 4 -14
15 -34 26 -43 10 -10 23 -34 30 -54 6 -20 19 -45 29 -56 10 -11 21 -35 25 -54
4 -19 18 -54 31 -79 13 -25 24 -60 24 -79 0 -19 10 -55 22 -81 19 -40 23 -64
23 -163 0 -74 -4 -121 -12 -130 -6 -8 -17 -36 -24 -63 -21 -85 -95 -178 -207
-263 -17 -13 -35 -23 -40 -23 -6 0 -23 -11 -39 -24 -16 -13 -47 -29 -70 -35
-22 -6 -46 -18 -53 -26 -6 -7 -37 -19 -68 -25 -31 -6 -77 -20 -103 -30 -25
-10 -88 -23 -140 -29 -51 -6 -145 -19 -208 -31 -151 -27 -331 -27 -331 1 0 4
60 70 133 147 182 190 300 330 343 404 6 10 20 29 31 41 18 20 103 144 128
185 5 10 20 34 33 54 29 45 53 87 86 153 15 28 30 57 36 65 5 8 16 31 25 50 8
19 22 46 29 60 39 70 75 152 81 184 8 39 48 79 74 74 9 -2 22 -17 30 -33z"/>
<path d="M4354 9480 c-34 -10 -89 -21 -122 -25 -40 -4 -72 -15 -93 -31 -18
-13 -41 -24 -50 -24 -10 0 -30 -10 -46 -23 -15 -13 -42 -29 -60 -36 -17 -7
-39 -21 -49 -32 -9 -10 -22 -19 -29 -19 -16 0 -52 -32 -195 -173 -66 -65 -120
-124 -120 -131 0 -7 -11 -23 -24 -36 -14 -12 -28 -35 -31 -50 -3 -15 -17 -42
-31 -61 -13 -18 -24 -40 -24 -48 0 -9 -12 -47 -25 -86 -37 -104 -34 -168 11
-249 31 -57 43 -69 102 -102 64 -35 71 -37 167 -38 86 0 107 3 144 22 24 13
66 27 93 32 27 6 61 19 75 30 14 11 33 20 43 20 9 0 37 13 61 30 24 16 48 30
53 30 4 0 23 12 42 28 18 15 52 41 75 57 23 17 53 42 67 58 15 15 32 27 39 27
8 0 18 11 23 24 5 13 17 27 27 30 19 7 47 44 83 109 11 20 25 37 31 37 5 0 18
20 29 45 11 25 23 45 28 45 5 0 15 21 22 48 6 26 21 63 33 82 19 31 22 49 22
151 0 109 -1 117 -25 144 -66 74 -89 95 -106 95 -11 0 -48 9 -82 20 -76 24
-79 24 -158 0z"/>
<path d="M7765 6001 c-16 -10 -54 -24 -82 -31 -29 -7 -53 -16 -53 -21 0 -6
-12 -15 -28 -22 -53 -23 -202 -153 -202 -177 0 -6 -11 -22 -25 -35 -18 -16
-29 -41 -37 -82 -22 -120 15 -185 112 -197 73 -8 205 7 224 27 9 8 33 21 53
28 21 6 52 23 69 36 17 12 36 23 43 23 14 0 131 117 151 151 8 15 24 39 34 54
14 19 21 49 24 104 4 80 -6 121 -32 121 -7 0 -23 9 -36 20 -32 28 -171 29
-215 1z"/>
<path d="M3032 2308 c-22 -22 -7 -203 23 -289 8 -22 20 -91 26 -152 6 -62 17
-128 25 -147 9 -19 20 -84 26 -145 5 -60 19 -140 30 -178 10 -37 23 -102 28
-145 10 -89 43 -161 96 -213 l35 -34 144 0 144 0 41 40 c22 21 40 45 40 52 0
8 11 40 25 73 13 32 28 85 31 117 4 32 15 80 26 107 10 27 23 83 28 125 6 42
19 98 30 126 10 27 22 75 25 106 3 31 12 65 20 75 13 17 16 13 45 -50 19 -41
37 -103 44 -155 7 -48 20 -100 29 -116 8 -17 18 -57 22 -90 3 -33 17 -91 30
-130 12 -38 26 -91 29 -117 7 -49 68 -138 103 -153 34 -14 231 -18 276 -5 58
17 113 83 123 147 4 27 15 69 25 95 10 26 23 94 29 150 5 57 17 126 25 153 9
28 20 92 25 143 6 51 19 127 31 170 11 42 24 122 29 176 5 55 17 121 25 147 9
26 15 65 13 86 l-3 38 -116 3 c-134 3 -135 2 -149 -79 -5 -30 -16 -74 -24 -98
-9 -24 -20 -90 -25 -145 -5 -56 -18 -137 -29 -181 -11 -44 -23 -116 -27 -160
-3 -44 -17 -120 -30 -170 -13 -49 -28 -112 -32 -140 -4 -27 -12 -49 -18 -48
-5 1 -17 28 -26 60 -9 32 -24 73 -32 90 -9 17 -20 58 -23 90 -4 32 -15 77 -25
100 -11 23 -26 75 -33 115 -8 40 -21 87 -30 104 -9 16 -20 60 -25 96 -5 36
-17 80 -26 97 -9 18 -22 68 -30 112 -13 73 -39 130 -70 151 -18 14 -231 9
-243 -4 -6 -7 -13 -31 -17 -53 -4 -22 -18 -65 -30 -95 -12 -30 -25 -79 -29
-109 -4 -30 -14 -68 -23 -84 -8 -17 -21 -66 -29 -109 -7 -43 -21 -92 -29 -108
-9 -17 -22 -63 -29 -103 -8 -39 -23 -97 -34 -127 -11 -30 -24 -82 -29 -115 -7
-52 -12 -62 -36 -73 -19 -9 -32 -11 -39 -4 -5 5 -16 72 -23 148 -8 77 -21 162
-30 189 -8 28 -20 96 -25 152 -6 55 -17 121 -25 144 -9 24 -22 100 -30 169
-16 148 -19 156 -56 175 -35 19 -199 21 -217 3z"/>
<path d="M4970 2294 c-15 -40 -13 -1267 2 -1282 17 -17 949 -17 966 0 8 8 12
51 12 128 0 77 -4 120 -12 128 -9 9 -96 12 -331 12 -200 0 -325 4 -338 10 -17
10 -19 22 -19 125 l0 115 33 20 c30 19 48 20 291 19 239 -1 261 1 273 17 9 12
13 52 13 120 0 143 20 134 -305 134 -208 0 -265 3 -280 14 -28 20 -28 162 0
182 15 11 85 14 336 14 258 0 319 3 328 14 8 9 11 54 9 132 l-3 119 -483 3
-482 2 -10 -26z"/>
<path d="M6213 2312 c-9 -6 -13 -160 -14 -647 l-1 -640 23 -13 c19 -9 131 -12
500 -10 l476 3 37 29 c21 16 51 49 67 74 l29 46 0 185 0 186 -29 43 c-15 24
-38 50 -49 58 -11 8 -23 28 -27 45 -6 25 -2 36 19 58 38 40 49 123 41 305 -3
82 -11 158 -16 169 -20 35 -54 69 -94 90 -39 21 -51 22 -495 25 -250 1 -460
-1 -467 -6z m775 -274 c15 -15 16 -181 2 -209 -10 -18 -23 -19 -234 -19 -196
0 -225 2 -237 17 -15 17 -20 173 -7 206 7 15 28 17 236 17 164 0 231 -3 240
-12z m44 -506 c18 -18 24 -217 8 -237 -19 -22 -512 -22 -530 0 -17 21 -10 216
9 239 13 15 40 17 257 14 183 -2 246 -6 256 -16z"/>
</g>
</svg>
